# xmcd
#
# Track frame offsets:
#	150
#	14153
#	32066
#	45404
#	65093
#	78521
#	90891
#	105065
#	121121
#	139408
#	158110
#	173552
#	189820
#	206453
#	222328
#	242266
#	259905
#	277462
#	292163
#	310564
#
# Disc length: 4388 seconds
#
# Revision: 0
# Processed by: cddbd v1.5.2PL0 Copyright (c) Steve Scherf et al.
# Submitted via: audiograbber 1.83.01
#
DISCID=13112214
DTITLE=Сборник - Популярная радиодвадцатка 5
DYEAR=2006
DGENRE=Pop
TTITLE0=Д.Билан - Так устроен этот мир
TTITLE1=Д.Маликов - Если
TTITLE2=Массква - Лови
TTITLE3=В.Меладзе и А.Лорак - Верни мою любовь
TTITLE4=Русские диджеи vs. Н.Киселева - Кавказкая пленница 2
TTITLE5=Сценакардия - Времена года
TTITLE6=Джани Радари - Её звали Лиля
TTITLE7=Челси - Самая любимая
TTITLE8=Авиатор - Ливень навсегда
TTITLE9=Виа-Гра - ЛМЛ
TTITLE10=Reflex - Половинка
TTITLE11=Plazma - Black would be white
TTITLE12=А.Руссо и Иванна - Через любовь
TTITLE13=А.Буйнов - В облака
TTITLE14=Т.Повалий - Переживу
TTITLE15=Триши - Лунная ночь
TTITLE16=Улицы - Верю, надеюсь, люблю
TTITLE17=Т.Кароль - Милый
TTITLE18=И.Билык - Рябина алая
TTITLE19=А.Высотская - Вижу тебя
EXTD=
EXTT0=
EXTT1=
EXTT2=
EXTT3=
EXTT4=
EXTT5=
EXTT6=
EXTT7=
EXTT8=
EXTT9=
EXTT10=
EXTT11=
EXTT12=
EXTT13=
EXTT14=
EXTT15=
EXTT16=
EXTT17=
EXTT18=
EXTT19=
PLAYORDER=
